<svg width="33" height="24" viewBox="0 0 33 24" fill="none" xmlns="http://www.w3.org/2000/svg">
<path d="M0.413806 15.1889C-1.21514 21.328 2.35637 23.4674 4.34574 23.7697C6.31171 24.258 9.54151 21.6768 9.68194 18.8166C9.82578 15.8867 11.5 6.5 13.0522 6.81749C13.9098 6.99293 13.8245 15.1889 13.0522 17.6306C12.2798 20.0723 13.6841 22.9325 16.2118 23.7697C18.2339 24.4394 19.5352 23.4906 19.9331 22.9325C22.1892 19.1599 24.2729 14.7874 25.4404 12.804C25.77 12.244 26.3898 12.3634 26.5387 12.9958C26.8331 14.2463 27.1852 16.3202 27.3757 19.2351C27.6565 23.5325 30.9565 24.0487 32.5714 23.7697C30.774 21.6489 30.3246 17.026 30.3246 14.9796C30.4416 13.91 30.451 11.2823 29.5523 9.32893C28.9453 8.00964 27.877 7.29499 26.9879 6.94856C26.2909 6.67699 25.7707 6.6509 25.0486 6.84585L25.0118 6.85578C24.4314 7.01233 23.5721 7.24409 23.1267 7.62872C22.4943 8.17483 21.7132 9.17542 21.1471 9.97434C21.0279 10.1426 20.7557 10.0661 20.7447 9.86018C20.6429 7.94907 20.3822 4.79851 19.9331 3.60844C19.3011 1.93416 17.3352 -1.2749 12.5607 0.538916C7.78619 2.35273 2.44999 7.51511 0.413806 15.1889Z" fill="url(#paint0_linear_129_2099)"/>
<defs>
<linearGradient id="paint0_linear_129_2099" x1="14.2533" y1="-0.786562" x2="25.9928" y2="25.3612" gradientUnits="userSpaceOnUse">
<stop stop-color="#6866E8"/>
<stop offset="1" stop-color="#2E2D70"/>
</linearGradient>
</defs>
</svg>
